<svg width="25" height="28" viewBox="0 0 25 28" fill="none" xmlns="http://www.w3.org/2000/svg">
<path fill-rule="evenodd" clip-rule="evenodd" d="M6.94444 2.77778H18.0556V0H20.8333V2.77778H22.2222C22.9589 2.77778 23.6655 3.07044 24.1864 3.59137C24.7073 4.1123 25 4.81884 25 5.55556V25C25 25.7367 24.7073 26.4432 24.1864 26.9642C23.6655 27.4851 22.9589 27.7778 22.2222 27.7778H2.77778C2.04107 27.7778 1.33453 27.4851 0.813592 26.9642C0.292658 26.4432 0 25.7367 0 25V5.55556C0 4.81884 0.292658 4.1123 0.813592 3.59137C1.33453 3.07044 2.04107 2.77778 2.77778 2.77778H4.16667V0H6.94444V2.77778ZM2.77778 8.33333V25H22.2222V8.33333H2.77778ZM5.55556 12.5H8.33333V15.2778H5.55556V12.5ZM11.1111 12.5H13.8889V15.2778H11.1111V12.5ZM16.6667 12.5H19.4444V15.2778H16.6667V12.5ZM16.6667 18.0556H19.4444V20.8333H16.6667V18.0556ZM11.1111 18.0556H13.8889V20.8333H11.1111V18.0556ZM5.55556 18.0556H8.33333V20.8333H5.55556V18.0556Z" fill="#0985CF"/>
</svg>
