<svg width="25" height="25" viewBox="0 0 25 25" fill="none" xmlns="http://www.w3.org/2000/svg">
<path d="M9.24609 18.4922C6.66193 18.4922 4.47511 17.597 2.68563 15.8065C0.89616 14.0161 0.000949069 11.8293 7.52632e-07 9.24609C-0.000947564 6.66287 0.894263 4.47605 2.68563 2.68563C4.477 0.895211 6.66382 0 9.24609 0C11.8284 0 14.0156 0.895211 15.808 2.68563C17.6003 4.47605 18.495 6.66287 18.4922 9.24609C18.4922 10.2892 18.3262 11.2731 17.9943 12.1977C17.6624 13.1223 17.2119 13.9403 16.643 14.6515L24.6088 22.6174C24.8696 22.8781 25 23.2101 25 23.6131C25 24.0161 24.8696 24.348 24.6088 24.6088C24.348 24.8696 24.0161 25 23.6131 25C23.2101 25 22.8781 24.8696 22.6174 24.6088L14.6515 16.643C13.9403 17.2119 13.1223 17.6624 12.1977 17.9943C11.2731 18.3262 10.2892 18.4922 9.24609 18.4922ZM9.24609 15.6472C11.0242 15.6472 12.5358 15.0251 13.7809 13.7809C15.0261 12.5367 15.6482 11.0251 15.6472 9.24609C15.6463 7.46705 15.0242 5.9559 13.7809 4.71266C12.5377 3.46942 11.0261 2.84685 9.24609 2.84495C7.4661 2.84305 5.95496 3.46562 4.71266 4.71266C3.47037 5.9597 2.8478 7.47084 2.84495 9.24609C2.84211 11.0213 3.46468 12.533 4.71266 13.7809C5.96065 15.0289 7.47179 15.651 9.24609 15.6472Z" fill="#0985CF"/>
</svg>
