<svg width="16" height="18" viewBox="0 0 16 18" fill="none" xmlns="http://www.w3.org/2000/svg">
<path d="M8.47439 17.0064L8.46559 17.008L8.40879 17.036L8.39279 17.0392L8.38159 17.036L8.32479 17.008C8.31626 17.0053 8.30986 17.0067 8.30559 17.012L8.30239 17.02L8.28879 17.3624L8.29279 17.3784L8.30079 17.3888L8.38399 17.448L8.39599 17.4512L8.40559 17.448L8.48879 17.3888L8.49839 17.376L8.50159 17.3624L8.48799 17.0208C8.48586 17.0123 8.48132 17.0075 8.47439 17.0064ZM8.68639 16.916L8.67599 16.9176L8.52799 16.992L8.51999 17L8.51759 17.0088L8.53199 17.3528L8.53599 17.3624L8.54239 17.368L8.70319 17.4424C8.71332 17.4451 8.72106 17.4429 8.72639 17.436L8.72959 17.4248L8.70239 16.9336C8.69972 16.924 8.69439 16.9181 8.68639 16.916ZM8.11439 16.9176C8.11087 16.9155 8.10665 16.9148 8.10263 16.9157C8.0986 16.9166 8.09508 16.919 8.09279 16.9224L8.08799 16.9336L8.06079 17.4248C8.06132 17.4344 8.06586 17.4408 8.07439 17.444L8.08639 17.4424L8.24719 17.368L8.25519 17.3616L8.25839 17.3528L8.27199 17.0088L8.26959 16.9992L8.26159 16.9912L8.11439 16.9176Z" fill="#A89074"/>
<path d="M8 0C12.4184 0 16 3.5816 16 8C16 12.4184 12.4184 16 8 16C3.5816 16 0 12.4184 0 8C0 3.5816 3.5816 0 8 0ZM8 1.6C6.30261 1.6 4.67475 2.27428 3.47452 3.47452C2.27428 4.67475 1.6 6.30261 1.6 8C1.6 9.69739 2.27428 11.3253 3.47452 12.5255C4.67475 13.7257 6.30261 14.4 8 14.4C9.69739 14.4 11.3253 13.7257 12.5255 12.5255C13.7257 11.3253 14.4 9.69739 14.4 8C14.4 6.30261 13.7257 4.67475 12.5255 3.47452C11.3253 2.27428 9.69739 1.6 8 1.6ZM8 3.2C8.19595 3.20003 8.38507 3.27196 8.5315 3.40217C8.67793 3.53238 8.77147 3.7118 8.7944 3.9064L8.8 4V7.6688L10.9656 9.8344C11.1091 9.97837 11.1924 10.1715 11.1986 10.3747C11.2048 10.5779 11.1334 10.7758 10.999 10.9282C10.8646 11.0807 10.6772 11.1762 10.4748 11.1955C10.2725 11.2148 10.0704 11.1563 9.9096 11.032L9.8344 10.9656L7.4344 8.5656C7.31006 8.44116 7.23021 8.2792 7.2072 8.1048L7.2 8V4C7.2 3.78783 7.28429 3.58434 7.43431 3.43431C7.58434 3.28429 7.78783 3.2 8 3.2Z" fill="#A89074"/>
</svg>
